<svg id="SvgjsSvg1025" width="288" height="288" xmlns="http://www.w3.org/2000/svg" version="1.1" xmlns:xlink="http://www.w3.org/1999/xlink" xmlns:svgjs="http://svgjs.com/svgjs"><defs id="SvgjsDefs1026"></defs><g id="SvgjsG1027"><svg xmlns="http://www.w3.org/2000/svg" width="288" height="288" enable-background="new 0 0 24 24" viewBox="0 0 24 24"><rect width="24" height="24" fill="none"></rect><path d="M9 15c-2.67 0-8 1.34-8 4v2h16v-2C17 16.34 11.67 15 9 15zM3 19c.22-.72 3.31-2 6-2 2.7 0 5.8 1.29 6 2H3zM4.74 9H5c0 2.21 1.79 4 4 4s4-1.79 4-4h.26c.27 0 .49-.22.49-.49V8.49c0-.27-.22-.49-.49-.49H13c0-1.48-.81-2.75-2-3.45V5.5C11 5.78 10.78 6 10.5 6S10 5.78 10 5.5V4.14C9.68 4.06 9.35 4 9 4S8.32 4.06 8 4.14V5.5C8 5.78 7.78 6 7.5 6S7 5.78 7 5.5V4.55C5.81 5.25 5 6.52 5 8H4.74C4.47 8 4.25 8.22 4.25 8.49v.03C4.25 8.78 4.47 9 4.74 9zM11 9c0 1.1-.9 2-2 2s-2-.9-2-2H11zM21.98 6.23l.93-.83-.75-1.3-1.19.39c-.14-.11-.3-.2-.47-.27L20.25 3h-1.5L18.5 4.22c-.17.07-.33.16-.48.27L16.84 4.1l-.75 1.3.93.83C17 6.4 17 6.58 17.02 6.75L16.09 7.6l.75 1.3 1.2-.38c.13.1.28.18.43.25L18.75 10h1.5l.27-1.22c.16-.07.3-.15.44-.25l1.19.38.75-1.3-.93-.85C22 6.57 21.99 6.4 21.98 6.23zM19.5 7.75c-.69 0-1.25-.56-1.25-1.25s.56-1.25 1.25-1.25 1.25.56 1.25 1.25S20.19 7.75 19.5 7.75zM19.4 10.79l-.85.28c-.1-.08-.21-.14-.33-.19L18.04 10h-1.07l-.18.87c-.12.05-.24.12-.34.19l-.84-.28-.54.93.66.59c-.01.13-.01.25 0 .37l-.66.61.54.93.86-.27c.1.07.2.13.31.18L16.96 15h1.07l.19-.87c.11-.05.22-.11.32-.18l.85.27.54-.93-.66-.61c.01-.13.01-.25 0-.37l.66-.59L19.4 10.79zM17.5 13.39c-.49 0-.89-.4-.89-.89 0-.49.4-.89.89-.89s.89.4.89.89C18.39 12.99 17.99 13.39 17.5 13.39z" fill="#949494" class="color000 svgShape"></path></svg></g></svg>